<svg width="41" height="49" viewBox="0 0 41 49" fill="none" xmlns="http://www.w3.org/2000/svg">
<path fill-rule="evenodd" clip-rule="evenodd" d="M18.7398 0.101487C16.4768 0.483017 14.8205 1.26677 13.3962 2.62995C11.044 4.88158 10.08 7.76418 10.0907 12.5147C10.0989 16.0802 10.6491 18.753 11.8646 21.13C13.4633 24.2568 15.9459 25.9647 19.4108 26.3217C21.3061 26.517 23.1915 26.2093 24.8046 25.4415C26.6749 24.5512 28.194 22.984 29.2443 20.8611C29.6558 20.0296 30.2362 18.2244 30.4651 17.0647C30.9677 14.5195 30.9919 10.605 30.5201 8.21899C29.7866 4.50992 27.5358 1.77991 24.2538 0.618367C22.7449 0.0843404 20.2365 -0.150823 18.7398 0.101487ZM22.6986 3.02259C25.7966 3.85874 27.5631 6.09878 28.0344 9.78907C28.2164 11.2141 28.192 14.3414 27.9888 15.6278C27.2915 20.043 25.5285 22.5604 22.5451 23.4011C22.094 23.5281 21.5809 23.5713 20.4835 23.5743C18.8433 23.5789 18.0378 23.4104 16.9522 22.8353C16.1523 22.4118 14.8978 21.1061 14.362 20.1398C13.2274 18.0932 12.6693 15.1098 12.7833 11.7005C12.897 8.30357 13.5357 6.36067 15.0498 4.80686C16.0342 3.79667 17.2138 3.18151 18.7398 2.88245C19.7111 2.69212 21.7403 2.76396 22.6986 3.02259ZM13.0335 26.4849C12.8542 26.5819 12.3044 26.9116 11.8119 27.2174C9.87141 28.4223 7.43902 29.5191 5.11963 30.2354C3.71021 30.6705 2.93693 31.108 2.14583 31.9178C0.635548 33.4637 0.0122264 35.549 0.000255748 39.0963C-0.00926421 41.9137 0.246643 43.4278 0.826607 43.9836C1.26094 44.3999 3.30038 45.4379 5.11963 46.1686C13.3382 49.4698 23.6686 49.914 32.4708 47.3448C35.6637 46.413 39.5911 44.6647 40.279 43.8691C40.9533 43.0893 41.2218 39.1373 40.7923 36.3144C40.4289 33.9259 39.474 32.1988 37.963 31.1963C37.2874 30.748 36.7067 30.5044 35.094 29.9928C33.1479 29.3755 31.0379 28.3872 29.0609 27.167C28.1889 26.6289 27.6698 26.3685 27.4114 26.3398C26.4108 26.2286 25.6567 27.3267 26.0927 28.2604C26.5169 29.1688 31.0203 31.5583 34.245 32.5859C34.9967 32.8253 35.8333 33.132 36.104 33.2673C37.0504 33.7403 37.7544 34.811 38.0846 36.2795C38.2116 36.8447 38.243 37.4565 38.2385 39.2879C38.2355 40.5523 38.1928 41.7115 38.1437 41.8639C38.0769 42.0711 37.9006 42.2218 37.4457 42.4606C33.7603 44.3959 28.7417 45.7451 23.7403 46.1456C21.6797 46.3106 17.1802 46.2061 15.2994 45.9495C10.8869 45.3475 6.91297 44.1817 3.72133 42.5527L2.86963 42.118L2.7929 41.6608C2.75067 41.4094 2.7191 40.2553 2.72277 39.0963C2.73022 36.751 2.83626 36.0168 3.31867 34.9691C3.84962 33.8162 4.55174 33.2501 5.96795 32.8331C7.52262 32.3753 9.21708 31.6807 11.0107 30.766C13.3675 29.5642 14.5537 28.7956 14.8339 28.2889C15.472 27.1352 14.1955 25.8562 13.0335 26.4849Z" fill="white"/>
</svg>
