<svg width="22" height="25" viewBox="0 0 22 25" fill="none" xmlns="http://www.w3.org/2000/svg">
<path fill-rule="evenodd" clip-rule="evenodd" d="M9.71657 0.0517789C8.54325 0.246437 7.68442 0.64631 6.94596 1.34181C5.7263 2.4906 5.22648 3.96132 5.23205 6.38504C5.23626 8.20416 5.52157 9.56784 6.15178 10.7806C6.9807 12.3759 8.26795 13.2473 10.0645 13.4294C11.0472 13.5291 12.0248 13.3721 12.8612 12.9803C13.8309 12.5261 14.6186 11.7265 15.1632 10.6434C15.3765 10.2192 15.6775 9.29816 15.7962 8.70647C16.0568 7.40793 16.0693 5.41072 15.8247 4.19336C15.4444 2.30098 14.2773 0.908119 12.5756 0.315494C11.7933 0.0430308 10.4926 -0.0769506 9.71657 0.0517789ZM11.7692 1.54214C13.3755 1.96874 14.2915 3.11162 14.5358 4.99443C14.6302 5.7215 14.6175 7.31703 14.5122 7.97338C14.1507 10.226 13.2365 11.5104 11.6896 11.9393C11.4557 12.0041 11.1897 12.0262 10.6207 12.0277C9.77023 12.03 9.35262 11.9441 8.78971 11.6507C8.37498 11.4346 7.72449 10.7684 7.4467 10.2754C6.85842 9.23121 6.56905 7.70908 6.62814 5.96962C6.68708 4.23651 7.01829 3.24524 7.80332 2.45248C8.31374 1.93708 8.92538 1.62322 9.71657 1.47064C10.2202 1.37353 11.2724 1.41018 11.7692 1.54214ZM6.75789 13.5127C6.66489 13.5622 6.37982 13.7304 6.12446 13.8864C5.11833 14.5012 3.85713 15.0608 2.65453 15.4262C1.92374 15.6482 1.5228 15.8714 1.11261 16.2846C0.329532 17.0733 0.00633938 18.1372 0.000132606 19.9471C-0.00480349 21.3846 0.127885 22.157 0.428596 22.4406C0.653799 22.653 1.71125 23.1826 2.65453 23.5554C6.91585 25.2397 12.2722 25.4663 16.8361 24.1555C18.4916 23.6801 20.528 22.7881 20.8847 22.3822C21.2343 21.9843 21.3735 19.968 21.1508 18.5277C20.9624 17.3092 20.4673 16.4279 19.6838 15.9165C19.3335 15.6878 19.0324 15.5635 18.1962 15.3025C17.1872 14.9875 16.0932 14.4833 15.0681 13.8607C14.616 13.5862 14.3468 13.4533 14.2128 13.4387C13.694 13.3819 13.303 13.9422 13.529 14.4186C13.749 14.8821 16.084 16.1012 17.7561 16.6254C18.1458 16.7476 18.5796 16.9041 18.7199 16.9731C19.2106 17.2144 19.5757 17.7607 19.7469 18.5099C19.8127 18.7983 19.829 19.1104 19.8267 20.0448C19.8251 20.6899 19.803 21.2814 19.7775 21.3592C19.7429 21.4649 19.6515 21.5417 19.4156 21.6636C17.5047 22.6509 14.9026 23.3394 12.3093 23.5437C11.2409 23.6279 8.90793 23.5745 7.93274 23.4436C5.64488 23.1365 3.58437 22.5417 1.92951 21.7105L1.4879 21.4888L1.44812 21.2555C1.42623 21.1273 1.40985 20.5384 1.41176 19.9471C1.41562 18.7505 1.4706 18.3759 1.72073 17.8414C1.99603 17.2532 2.36008 16.9643 3.09438 16.7516C3.90048 16.518 4.77906 16.1636 5.70905 15.697C6.93105 15.0838 7.54611 14.6916 7.6914 14.4331C8.02222 13.8445 7.36039 13.192 6.75789 13.5127Z" fill="#6546BD"/>
</svg>
