<svg width="80" height="60" viewBox="0 0 80 60" fill="none" xmlns="http://www.w3.org/2000/svg">
<path fill-rule="evenodd" clip-rule="evenodd" d="M19.1295 0.194854C18.8489 0.29655 18.3715 0.577543 18.0688 0.81911C16.9608 1.70324 16.8364 2.0537 15.7271 7.41761C15.1578 10.1712 14.6563 12.5473 14.6128 12.698C14.5395 12.9524 14.1252 12.9718 8.77346 12.9718H3.01294L2.17653 13.4088C1.24171 13.897 0.415936 14.861 0.168268 15.7528C-0.0560892 16.5602 -0.0560892 56.1634 0.168268 56.9709C0.423915 57.8913 1.23967 58.8421 2.18498 59.3216L3.03343 59.7519L32.3797 59.7484C60.4417 59.7452 61.7536 59.7325 62.352 59.4598C63.2676 59.0424 63.9253 58.4297 64.3094 57.6361C64.4959 57.2508 64.7233 56.9357 64.8148 56.9357C64.9062 56.9357 65.7075 57.0881 66.5956 57.2744C68.0207 57.5736 68.3122 57.5905 69.0788 57.419C70.2577 57.155 71.1662 56.4432 71.6919 55.3711C72.0249 54.6923 72.9611 50.4164 76.1281 35.1102C80.4195 14.37 80.3258 14.9411 79.6544 13.6251C79.2817 12.8948 78.231 11.9506 77.5446 11.7292C77.1389 11.5984 65.3827 9.14973 33.8772 2.63384C31.3817 2.11769 28.5303 1.52457 27.5407 1.31554C20.8335 -0.101002 20.1841 -0.187523 19.1295 0.194854ZM48.6115 7.65307C63.9993 10.8374 76.7849 13.522 77.0238 13.619C77.5082 13.8157 77.9818 14.4126 78.124 15.0057C78.2041 15.34 77.2866 20.3841 77.1144 20.5564C77.081 20.5897 74.6611 20.1288 71.7368 19.5319C68.8125 18.9352 66.0502 18.3717 65.5985 18.2797L64.7771 18.1126V17.2917C64.7771 15.4664 63.9998 14.0964 62.5562 13.377L61.7429 12.9718H50.731H39.7189L33.1996 11.6341C21.2891 9.1904 17.6198 8.42252 17.5581 8.36072C17.4652 8.26779 18.4727 3.5782 18.7096 3.00119C18.9352 2.45125 19.7516 1.86501 20.2931 1.86407C20.4802 1.86376 33.2235 4.46874 48.6115 7.65307ZM23.2534 11.5652C26.6011 12.2546 29.4104 12.8474 29.4964 12.8827C29.5825 12.9181 26.7056 12.9527 23.1035 12.9594L16.554 12.9718L16.6619 12.3851C16.8567 11.3255 17.0834 10.312 17.1255 10.312C17.1482 10.312 19.9057 10.8761 23.2534 11.5652ZM62.1081 15.3879C62.3724 15.6412 62.6582 16.0988 62.7433 16.4049C62.9542 17.1645 62.9542 55.5592 62.7433 56.3188C62.6582 56.6248 62.3724 57.0824 62.1081 57.3357L61.6275 57.7962L32.6024 57.8366C-0.0265183 57.8819 2.75619 57.9847 2.17856 56.7129C1.90164 56.103 1.88896 55.213 1.88896 36.3618C1.88896 17.5374 1.90195 16.6198 2.17747 16.0133C2.7526 14.7472 -0.047954 14.8505 32.5761 14.8912L61.6275 14.9275L62.1081 15.3879ZM41.7782 19.8558V21.2639H42.7169H43.6556V19.8558V18.4477H42.7169H41.7782V19.8558ZM45.6895 19.8558V21.2639H46.6283H47.567V19.8558V18.4477H46.6283H45.6895V19.8558ZM50.3832 19.8558V21.2639H51.3219H52.2607V19.8558V18.4477H51.3219H50.3832V19.8558ZM54.2946 19.8558V21.2639H55.2333H56.172V19.8558V18.4477H55.2333H54.2946V19.8558ZM75.5515 22.2945L76.7038 22.545L76.6118 23.117C76.5611 23.4316 76.2991 24.7483 76.0297 26.0431L75.5396 28.3973L70.1593 27.373L64.779 26.3487L64.778 23.2102L64.7771 20.0719L69.5881 21.0578C72.2342 21.6001 74.9177 22.1566 75.5515 22.2945ZM9.27772 21.0266C8.30175 21.4507 8.14154 21.9717 8.14091 24.7239C8.14029 26.965 8.16735 27.2014 8.46697 27.5823C9.09639 28.3825 9.45545 28.4608 12.4901 28.4608C15.1465 28.4608 15.3183 28.4424 15.8204 28.1041C16.658 27.5396 16.7405 27.2286 16.7425 24.6277C16.7452 20.9673 16.546 20.7911 12.4192 20.8006C10.5115 20.805 9.64335 20.8674 9.27772 21.0266ZM14.8336 24.6668L14.8776 26.5834H12.4477H10.0178V24.732C10.0178 23.7137 10.0666 22.8319 10.126 22.7723C10.1856 22.7127 11.2594 22.6834 12.512 22.707L14.7896 22.7502L14.8336 24.6668ZM70.1748 29.3303C72.7563 29.8192 74.9251 30.271 74.9944 30.3344C75.1513 30.4777 70.3168 53.8485 69.9839 54.5566C69.694 55.1729 68.9981 55.5681 68.231 55.5518C67.9232 55.5454 67.0379 55.4071 66.2634 55.2447L64.8553 54.9493L64.8153 41.6096L64.7754 28.27L65.1282 28.3557C65.3223 28.403 67.5933 28.8415 70.1748 29.3303ZM5.512 46.9557L5.55878 47.9395H6.96687H8.37497V47.0008V46.0621L6.92009 46.017L5.46537 45.9719L5.512 46.9557ZM10.2058 46.9617L10.2524 47.9395L11.6214 47.9847L12.9904 48.0299V47.0069V45.9838H11.5748H10.1593L10.2058 46.9617ZM14.8995 46.9617L14.9461 47.9395H16.3542H17.7623L17.8089 46.9617L17.8554 45.9838H16.3542H14.853L14.8995 46.9617ZM19.593 46.9557L19.6397 47.9395H21.0478H22.4559V47.0008V46.0621L21.0011 46.017L19.5463 45.9719L19.593 46.9557ZM24.3192 46.1993C24.2736 46.3177 24.2583 46.7578 24.2849 47.1771L24.3334 47.9395H25.7415H27.1496L27.1962 46.9617L27.2427 45.9838H25.8222C24.7604 45.9838 24.381 46.0383 24.3192 46.1993ZM5.48055 53.3372V54.276H16.3542H27.2278V53.3372V52.3985H16.3542H5.48055V53.3372Z" fill="#6546BD"/>
</svg>
