<svg width="22" height="25" viewBox="0 0 22 25" fill="none" xmlns="http://www.w3.org/2000/svg">
<path fill-rule="evenodd" clip-rule="evenodd" d="M0.803749 0.0602651C0.52733 0.159234 0.277071 0.381817 0.137614 0.652809L0.0151741 0.890745L0.00260739 10.7629C-0.00590083 17.4487 0.00632364 20.6956 0.040601 20.8229C0.119131 21.1145 0.373595 21.4135 0.672165 21.5649L0.937338 21.6994H2.1235H3.30966L3.32497 22.9341C3.33925 24.09 3.34697 24.1812 3.44575 24.3643C3.56926 24.5932 3.76079 24.7813 4.00034 24.9089C4.16445 24.9962 4.40008 25 9.72139 25H15.2713L15.6997 24.8467C15.9353 24.7624 16.2521 24.6194 16.4036 24.5289C16.6871 24.3595 20.1225 21.1741 20.4228 20.8022C20.6591 20.5094 20.9114 19.9845 21.0202 19.5589C21.1114 19.2024 21.1146 18.9406 21.1143 11.7775C21.1141 6.82215 21.0973 4.30474 21.0634 4.18298C20.9835 3.89532 20.7286 3.59817 20.4331 3.4483L20.168 3.31383H18.9818H17.7956L17.7803 2.07916C17.7668 0.986585 17.7546 0.824782 17.6739 0.673346C17.5464 0.433795 17.3582 0.242263 17.1294 0.118747L16.9338 0.0132254L8.96347 0.00285907C2.27283 -0.00589363 0.962716 0.00334805 0.803749 0.0602651ZM16.8178 0.998614C16.8703 1.06184 16.8849 1.31963 16.8849 2.18439V3.28938L10.5282 3.31383L4.17149 3.33828L3.9759 3.4438C3.71987 3.58198 3.54031 3.77601 3.41753 4.04729C3.31861 4.26587 3.31793 4.32298 3.31685 12.5458L3.31578 20.8244L2.19851 20.8096C1.3406 20.7982 1.06252 20.7792 1.00051 20.7277C0.925945 20.6657 0.919783 19.9114 0.919783 10.866C0.919783 2.02713 0.927265 1.06404 0.996602 0.994653C1.06584 0.925463 1.85124 0.917835 8.91208 0.917835C16.1404 0.917835 16.7559 0.924142 16.8178 0.998614ZM20.0388 4.25726L20.1611 4.31912V11.7991V19.279L18.2296 19.3034L16.2981 19.3279L16.0223 19.4633C15.7163 19.6136 15.4109 19.9159 15.2381 20.2398C15.1267 20.4486 15.1242 20.4859 15.1001 22.2617L15.0757 24.0709H9.69841H4.32107L4.25901 23.9487C4.20938 23.8509 4.19931 21.8806 4.2087 14.1037L4.22039 4.38092L4.33583 4.28748C4.4484 4.19629 4.64271 4.19399 12.1839 4.19472C18.3201 4.19526 19.9418 4.20822 20.0388 4.25726ZM7.62416 7.5873C7.35439 7.73683 7.30794 8.03002 7.51698 8.26395L7.65966 8.42365H12.21H16.7605L16.8936 8.2905C17.0877 8.09632 17.0782 7.84602 16.8695 7.65952L16.7122 7.51904L12.2266 7.52075C8.59728 7.52217 7.71873 7.53488 7.62416 7.5873ZM7.60656 10.6035C7.55947 10.6309 7.48656 10.7199 7.44456 10.8012C7.34662 10.9906 7.39106 11.2029 7.5558 11.3325C7.67907 11.4294 7.74577 11.4309 12.2006 11.4309C15.3446 11.4309 16.7502 11.4148 16.8189 11.3781C16.8732 11.349 16.9491 11.2499 16.9875 11.158C17.048 11.0131 17.048 10.9685 16.9875 10.8236C16.9491 10.7316 16.8732 10.6326 16.8189 10.6035C16.6851 10.5319 7.72949 10.5319 7.60656 10.6035ZM7.5558 13.6807C7.487 13.7349 7.41659 13.8433 7.39938 13.9217C7.36305 14.0871 7.47277 14.3355 7.61609 14.4122C7.75061 14.4842 16.6842 14.4818 16.8189 14.4097C16.9488 14.3402 17.0538 14.0815 17.0212 13.9113C17.007 13.8368 16.94 13.7322 16.8724 13.679C16.752 13.5843 16.6582 13.5824 12.2152 13.5824C7.74577 13.5824 7.67907 13.5838 7.5558 13.6807ZM7.68665 16.6124C7.55135 16.6679 7.37429 16.8957 7.37429 17.0143C7.37429 17.1738 7.50989 17.3799 7.65418 17.4397C7.75472 17.4813 8.47811 17.4931 10.3257 17.4833L12.8594 17.4697L12.9773 17.3325C13.1334 17.1511 13.1334 16.9082 12.9773 16.7268L12.8594 16.5896L10.3246 16.5798C8.93056 16.5744 7.74347 16.5891 7.68665 16.6124ZM19.6674 20.289C19.4634 20.52 16.0644 23.7042 16.0219 23.7042C15.9944 23.7042 15.982 23.1039 15.9905 22.1918C16.0067 20.4753 15.9989 20.5095 16.4214 20.2936C16.6314 20.1863 16.6752 20.1836 18.1987 20.1836H19.7606L19.6674 20.289Z" fill="#6546BD"/>
</svg>
