<svg width="28" height="25" viewBox="0 0 28 25" fill="none" xmlns="http://www.w3.org/2000/svg">
<path fill-rule="evenodd" clip-rule="evenodd" d="M6.12274 0.098748C5.73476 0.223419 5.45816 0.40488 5.14585 0.739753C4.8395 1.06823 4.65708 1.4464 4.57731 1.91842C4.53625 2.16136 4.5234 4.36993 4.53422 9.30376L4.54969 16.3425L4.66652 16.6517C4.89885 17.2664 5.40559 17.791 5.99775 18.0298L6.30937 18.1555L15.721 18.1713C22.6016 18.1829 25.2182 18.1708 25.4508 18.1264C26.3302 17.9584 27.0708 17.2187 27.2368 16.3425C27.2808 16.1108 27.2931 14.0527 27.2816 8.87717L27.2656 1.73179L27.1495 1.44843C26.9757 1.02466 26.6317 0.604097 26.2647 0.36686C25.6503 -0.0302422 26.4637 -0.00155397 15.9113 0.00164545C6.98349 0.00431164 6.39848 0.0101239 6.12274 0.098748ZM25.5283 1.25971C25.8783 1.43414 26.0983 1.75184 26.145 2.15054C26.1627 2.3015 26.1701 4.7256 26.1615 7.53741L26.1458 12.6498L23.626 9.71046C22.2401 8.09385 21.0058 6.69847 20.8832 6.60963C20.3158 6.19867 19.4922 6.20491 18.9014 6.62478C18.782 6.70956 17.1487 8.64527 14.1916 12.2067C14.1809 12.2196 13.7584 11.8188 13.2526 11.316C12.175 10.2448 12.0403 10.1618 11.3751 10.1607C10.5984 10.1593 10.6395 10.1277 8.00352 12.7572L5.69615 15.0588V8.51313C5.69615 2.17688 5.6994 1.96119 5.79789 1.76965C5.85388 1.66087 5.96789 1.50714 6.05118 1.42811C6.39597 1.10113 5.69711 1.12294 15.9105 1.12064L25.245 1.11856L25.5283 1.25971ZM9.53546 3.50843C9.14454 3.63811 8.86886 3.81984 8.55857 4.15247C7.73104 5.03973 7.76479 6.39255 8.63626 7.26594C9.94381 8.57643 12.1482 7.85805 12.4689 6.01694C12.5952 5.29126 12.3306 4.55059 11.7514 4.00877C11.3084 3.59439 10.9621 3.45543 10.3087 3.42994C9.94728 3.41581 9.75627 3.43522 9.53546 3.50843ZM10.6824 4.63074C11.5239 5.01301 11.5725 6.2129 10.7646 6.65949C10.2656 6.93533 9.63672 6.7823 9.3003 6.30318C9.08631 5.99833 9.04403 5.50647 9.20501 5.19346C9.49851 4.62258 10.1327 4.38102 10.6824 4.63074ZM20.2424 7.55981C20.3097 7.60983 21.6708 9.17445 23.2671 11.0368L26.1696 14.4228L26.171 15.1857C26.1718 15.6054 26.1443 16.0606 26.1098 16.1974C26.0238 16.5391 25.6492 16.9137 25.3075 16.9997C24.9815 17.0818 6.8376 17.09 6.54304 17.0082C6.43698 16.9787 6.27125 16.9009 6.17478 16.8352C5.7957 16.577 5.64181 16.7705 8.49394 13.918C10.2122 12.1995 11.1522 11.2964 11.244 11.2763C11.3206 11.2595 11.4534 11.2718 11.5392 11.3038C11.6249 11.3357 12.187 11.8515 12.7882 12.4499C13.3894 13.0483 13.9508 13.5637 14.0357 13.5954C14.3947 13.7291 14.3772 13.7468 17.0596 10.5287C18.7089 8.54998 19.6125 7.50696 19.7082 7.47118C19.8843 7.40549 20.0782 7.43764 20.2424 7.55981ZM2.54141 8.82524C2.45641 8.87141 2.36539 8.99352 2.31452 9.12971C2.11487 9.66386 0.0333243 17.541 0.00671577 17.8631C-0.0671377 18.7559 0.475165 19.689 1.2867 20.0655C1.43899 20.1361 2.93131 20.5593 4.60301 21.006C6.27471 21.4526 10.282 22.5264 13.5081 23.3921C16.7342 24.2578 19.5209 24.9785 19.7008 24.9936C20.5399 25.0643 21.4737 24.5379 21.8517 23.7812C22.023 23.438 22.9197 20.1598 22.9197 19.8764C22.9197 19.6401 22.7171 19.3778 22.4972 19.3295C22.3041 19.2871 21.9891 19.4145 21.9068 19.5682C21.8577 19.6599 20.8934 23.142 20.8934 23.2276C20.8934 23.2401 20.7941 23.358 20.6727 23.4898C20.5081 23.6684 20.3792 23.7503 20.1653 23.8125C19.8315 23.9096 19.8768 23.9169 18.4672 23.5385C17.8806 23.381 13.8973 22.3151 9.61545 21.1697C1.20117 18.9189 1.53423 19.0223 1.28883 18.5848C1.04333 18.1471 1.01587 18.287 2.25575 13.6622C2.88689 11.3083 3.40323 9.32019 3.40323 9.24436C3.40323 9.15862 3.33465 9.03789 3.22193 8.92516C3.01956 8.7228 2.79166 8.68931 2.54141 8.82524Z" fill="#6546BD"/>
</svg>
