<svg width="98" height="119" viewBox="0 0 98 119" fill="none" xmlns="http://www.w3.org/2000/svg">
<g filter="url(#filter0_d_750_3825)">
<mask id="path-1-outside-1_750_3825" maskUnits="userSpaceOnUse" x="19.2572" y="19" width="47" height="69" fill="black">
<rect fill="white" x="19.2572" y="19" width="47" height="69"/>
<path fill-rule="evenodd" clip-rule="evenodd" d="M42.8731 21C30.9543 21 21.2572 30.6971 21.2572 42.6159C21.2572 46.1939 22.1518 49.7415 23.8524 52.8882L41.691 85.151C41.9285 85.5811 42.381 85.8476 42.8731 85.8476C43.3652 85.8476 43.8177 85.5811 44.0552 85.151L61.9004 52.8775C63.5944 49.7415 64.489 46.1938 64.489 42.6158C64.489 30.6971 54.7919 21 42.8731 21ZM42.8732 55.3311C49.8956 55.3311 55.5884 49.6383 55.5884 42.6159C55.5884 35.5935 49.8956 29.9007 42.8732 29.9007C35.8507 29.9007 30.1579 35.5935 30.1579 42.6159C30.1579 49.6383 35.8507 55.3311 42.8732 55.3311Z"/>
</mask>
<path fill-rule="evenodd" clip-rule="evenodd" d="M42.8731 21C30.9543 21 21.2572 30.6971 21.2572 42.6159C21.2572 46.1939 22.1518 49.7415 23.8524 52.8882L41.691 85.151C41.9285 85.5811 42.381 85.8476 42.8731 85.8476C43.3652 85.8476 43.8177 85.5811 44.0552 85.151L61.9004 52.8775C63.5944 49.7415 64.489 46.1938 64.489 42.6158C64.489 30.6971 54.7919 21 42.8731 21ZM42.8732 55.3311C49.8956 55.3311 55.5884 49.6383 55.5884 42.6159C55.5884 35.5935 49.8956 29.9007 42.8732 29.9007C35.8507 29.9007 30.1579 35.5935 30.1579 42.6159C30.1579 49.6383 35.8507 55.3311 42.8732 55.3311Z" fill="#6546BD"/>
<path d="M23.8524 52.8882L22.7337 53.4927L22.7396 53.5034L23.8524 52.8882ZM41.691 85.151L42.8042 84.5364L42.8038 84.5357L41.691 85.151ZM44.0552 85.151L42.9424 84.5357L42.9421 84.5364L44.0552 85.151ZM61.9004 52.8775L63.0132 53.4928L63.0191 53.4818L61.9004 52.8775ZM22.5287 42.6159C22.5287 31.3994 31.6566 22.2715 42.8731 22.2715V19.7285C30.2521 19.7285 19.9857 29.9949 19.9857 42.6159H22.5287ZM24.971 52.2836C23.3711 49.3233 22.5287 45.9835 22.5287 42.6159H19.9857C19.9857 46.4043 20.9325 50.1598 22.7338 53.4927L24.971 52.2836ZM42.8038 84.5357L24.9651 52.2729L22.7396 53.5034L40.5783 85.7662L42.8038 84.5357ZM42.8731 84.576C42.8426 84.576 42.8172 84.5599 42.8042 84.5364L40.5779 85.7656C41.0399 86.6022 41.9195 87.1191 42.8731 87.1191V84.576ZM42.9421 84.5364C42.929 84.5599 42.9036 84.576 42.8731 84.576V87.1191C43.8267 87.1191 44.7064 86.6022 45.1683 85.7656L42.9421 84.5364ZM60.7877 52.2622L42.9424 84.5357L45.1679 85.7663L63.0132 53.4928L60.7877 52.2622ZM63.2175 42.6158C63.2175 45.9838 62.3749 49.3237 60.7817 52.2732L63.0191 53.4818C64.8139 50.1593 65.7605 46.4038 65.7605 42.6158H63.2175ZM42.8731 22.2715C54.0896 22.2715 63.2175 31.3994 63.2175 42.6158H65.7605C65.7605 29.9949 55.4941 19.7285 42.8731 19.7285V22.2715ZM54.3169 42.6159C54.3169 48.9361 49.1934 54.0596 42.8732 54.0596V56.6026C50.5978 56.6026 56.8599 50.3406 56.8599 42.6159H54.3169ZM42.8732 31.1722C49.1934 31.1722 54.3169 36.2957 54.3169 42.6159H56.8599C56.8599 34.8912 50.5978 28.6291 42.8732 28.6291V31.1722ZM31.4295 42.6159C31.4295 36.2957 36.553 31.1722 42.8732 31.1722V28.6291C35.1485 28.6291 28.8864 34.8912 28.8864 42.6159H31.4295ZM42.8732 54.0596C36.553 54.0596 31.4295 48.9361 31.4295 42.6159H28.8864C28.8864 50.3406 35.1485 56.6026 42.8732 56.6026V54.0596Z" fill="#6546BD" mask="url(#path-1-outside-1_750_3825)"/>
</g>
<defs>
<filter id="filter0_d_750_3825" x="0.912868" y="0.653713" width="96.6357" height="118.252" filterUnits="userSpaceOnUse" color-interpolation-filters="sRGB">
<feFlood flood-opacity="0" result="BackgroundImageFix"/>
<feColorMatrix in="SourceAlpha" type="matrix" values="0 0 0 0 0 0 0 0 0 0 0 0 0 0 0 0 0 0 127 0" result="hardAlpha"/>
<feOffset dx="6.35762" dy="6.35762"/>
<feGaussianBlur stdDeviation="12.7152"/>
<feColorMatrix type="matrix" values="0 0 0 0 0.4 0 0 0 0 0.713726 0 0 0 0 0.843137 0 0 0 0.3 0"/>
<feBlend mode="normal" in2="BackgroundImageFix" result="effect1_dropShadow_750_3825"/>
<feBlend mode="normal" in="SourceGraphic" in2="effect1_dropShadow_750_3825" result="shape"/>
</filter>
</defs>
</svg>
