<svg width="103" height="126" viewBox="0 0 103 126" fill="none" xmlns="http://www.w3.org/2000/svg">
<g filter="url(#filter0_d_750_3759)">
<mask id="path-1-outside-1_750_3759" maskUnits="userSpaceOnUse" x="19.7998" y="20.2578" width="49" height="72" fill="black">
<rect fill="white" x="19.7998" y="20.2578" width="49" height="72"/>
<path fill-rule="evenodd" clip-rule="evenodd" d="M44.6284 22.2578C32.0409 22.2578 21.7998 32.499 21.7998 45.0864C21.7998 48.8651 22.7446 52.6118 24.5406 55.9349L43.38 90.0077C43.6308 90.462 44.1087 90.7434 44.6284 90.7434C45.148 90.7434 45.626 90.462 45.8768 90.0077L64.7232 55.9237C66.5122 52.6118 67.457 48.865 67.457 45.0863C67.457 32.499 57.2158 22.2578 44.6284 22.2578ZM44.6284 58.5164C52.0448 58.5164 58.057 52.5042 58.057 45.0878C58.057 37.6714 52.0448 31.6593 44.6284 31.6593C37.212 31.6593 31.1999 37.6714 31.1999 45.0878C31.1999 52.5042 37.212 58.5164 44.6284 58.5164Z"/>
</mask>
<path fill-rule="evenodd" clip-rule="evenodd" d="M44.6284 22.2578C32.0409 22.2578 21.7998 32.499 21.7998 45.0864C21.7998 48.8651 22.7446 52.6118 24.5406 55.9349L43.38 90.0077C43.6308 90.462 44.1087 90.7434 44.6284 90.7434C45.148 90.7434 45.626 90.462 45.8768 90.0077L64.7232 55.9237C66.5122 52.6118 67.457 48.865 67.457 45.0863C67.457 32.499 57.2158 22.2578 44.6284 22.2578ZM44.6284 58.5164C52.0448 58.5164 58.057 52.5042 58.057 45.0878C58.057 37.6714 52.0448 31.6593 44.6284 31.6593C37.212 31.6593 31.1999 37.6714 31.1999 45.0878C31.1999 52.5042 37.212 58.5164 44.6284 58.5164Z" fill="#0B0B0B"/>
<path d="M24.5406 55.9349L23.3591 56.5734L23.3654 56.5847L24.5406 55.9349ZM43.38 90.0077L44.5556 89.3587L44.5552 89.3579L43.38 90.0077ZM45.8768 90.0077L44.7016 89.3579L44.7012 89.3587L45.8768 90.0077ZM64.7232 55.9237L65.8984 56.5735L65.9046 56.5619L64.7232 55.9237ZM23.1427 45.0864C23.1427 33.2406 32.7826 23.6007 44.6284 23.6007V20.915C31.2993 20.915 20.4569 31.7573 20.4569 45.0864H23.1427ZM25.7219 55.2965C24.0323 52.1701 23.1427 48.6429 23.1427 45.0864H20.4569C20.4569 49.0873 21.4569 53.0535 23.3592 56.5734L25.7219 55.2965ZM44.5552 89.3579L25.7157 55.2852L23.3654 56.5847L42.2048 90.6575L44.5552 89.3579ZM44.6284 89.4006C44.5961 89.4006 44.5693 89.3835 44.5556 89.3587L42.2044 90.6568C42.6923 91.5404 43.6213 92.0863 44.6284 92.0863V89.4006ZM44.7012 89.3587C44.6875 89.3835 44.6606 89.4006 44.6284 89.4006V92.0863C45.6355 92.0863 46.5645 91.5404 47.0524 90.6568L44.7012 89.3587ZM63.548 55.2739L44.7016 89.3579L47.0519 90.6575L65.8983 56.5735L63.548 55.2739ZM66.1141 45.0863C66.1141 48.6432 65.2243 52.1705 63.5417 55.2855L65.9046 56.5619C67.8001 53.053 68.7998 49.0868 68.7998 45.0863H66.1141ZM44.6284 23.6007C56.4742 23.6007 66.1141 33.2406 66.1141 45.0863H68.7998C68.7998 31.7573 57.9575 20.915 44.6284 20.915V23.6007ZM56.7141 45.0878C56.7141 51.7626 51.3032 57.1735 44.6284 57.1735V59.8593C52.7865 59.8593 59.3999 53.2459 59.3999 45.0878H56.7141ZM44.6284 33.0021C51.3032 33.0021 56.7141 38.4131 56.7141 45.0878H59.3999C59.3999 36.9298 52.7865 30.3164 44.6284 30.3164V33.0021ZM32.5427 45.0878C32.5427 38.4131 37.9537 33.0021 44.6284 33.0021V30.3164C36.4704 30.3164 29.857 36.9298 29.857 45.0878H32.5427ZM44.6284 57.1735C37.9537 57.1735 32.5427 51.7626 32.5427 45.0878H29.857C29.857 53.2459 36.4704 59.8593 44.6284 59.8593V57.1735Z" fill="#6546BD" mask="url(#path-1-outside-1_750_3759)"/>
</g>
<defs>
<filter id="filter0_d_750_3759" x="0.314052" y="0.771205" width="102.057" height="124.886" filterUnits="userSpaceOnUse" color-interpolation-filters="sRGB">
<feFlood flood-opacity="0" result="BackgroundImageFix"/>
<feColorMatrix in="SourceAlpha" type="matrix" values="0 0 0 0 0 0 0 0 0 0 0 0 0 0 0 0 0 0 127 0" result="hardAlpha"/>
<feOffset dx="6.71429" dy="6.71429"/>
<feGaussianBlur stdDeviation="13.4286"/>
<feColorMatrix type="matrix" values="0 0 0 0 0.4 0 0 0 0 0.713726 0 0 0 0 0.843137 0 0 0 0.3 0"/>
<feBlend mode="normal" in2="BackgroundImageFix" result="effect1_dropShadow_750_3759"/>
<feBlend mode="normal" in="SourceGraphic" in2="effect1_dropShadow_750_3759" result="shape"/>
</filter>
</defs>
</svg>
