<svg width="80" height="77" viewBox="0 0 80 77" fill="none" xmlns="http://www.w3.org/2000/svg">
<path fill-rule="evenodd" clip-rule="evenodd" d="M0.258594 0.309703C0.0225 0.570484 0 1.67361 0 12.957V25.3188L0.347344 25.5619C0.654375 25.777 2.09766 25.8052 12.8125 25.8052C23.5273 25.8052 24.9706 25.777 25.2777 25.5619L25.625 25.3188V12.9299C25.625 1.12627 25.6116 0.528921 25.3392 0.282515C25.0784 0.0465776 23.9817 0.0239214 12.7853 0.0239214C1.09859 0.0239214 0.505 0.0375152 0.258594 0.309703ZM31.1822 0.231421C31.0231 0.347671 30.8984 0.634234 30.8984 0.883296C30.8984 1.57892 31.2827 1.74267 32.9153 1.74267H34.3647L34.4089 7.9272C34.4512 13.8416 34.4664 14.1216 34.7564 14.3335C35.1411 14.6147 35.4839 14.6147 35.8686 14.3335C36.1586 14.1216 36.1738 13.8416 36.2161 7.9272L36.2603 1.74267H41.802H47.3438V3.93017V6.11767H44.9461C42.8217 6.11767 42.5189 6.15017 42.2898 6.40345C42.0658 6.65111 42.0312 7.14705 42.0312 10.1236C42.0312 12.8405 42.0775 13.6213 42.2527 13.8613C42.4519 14.1341 42.7114 14.1695 44.8308 14.2149L47.1875 14.2652V16.2505C47.1875 18.5625 47.3436 18.9813 48.1755 18.8999C48.9759 18.8216 49.075 18.4281 49.0267 15.5175C48.9719 12.2103 49.1231 12.3677 45.9983 12.3677H43.75V10.102V7.83642H46.142C47.9613 7.83642 48.6067 7.7833 48.8373 7.6147C49.1217 7.40658 49.1406 7.17752 49.1406 3.93017C49.1406 0.682828 49.1217 0.453765 48.8373 0.24564C48.402 -0.0726412 31.6166 -0.0860786 31.1822 0.231421ZM54.6336 0.309703C54.3975 0.570484 54.375 1.67361 54.375 12.957V25.3188L54.7223 25.5619C55.0294 25.777 56.4759 25.8052 67.2223 25.8052C79.1667 25.8052 79.3803 25.7999 79.6875 25.4927C79.9947 25.1855 80 24.9719 80 12.8606C80 1.12408 79.9864 0.528921 79.7142 0.282515C79.4534 0.0465776 78.3567 0.0239214 67.1603 0.0239214C55.4736 0.0239214 54.88 0.0375152 54.6336 0.309703ZM23.9062 12.9145V24.0864H12.8125H1.71875V12.9145V1.74267H12.8125H23.9062V12.9145ZM78.2812 12.9145V24.0864H67.1875H56.0938V12.9145V1.74267H67.1875H78.2812V12.9145ZM6.96422 6.98814C6.75 7.20236 6.71875 7.95877 6.71875 12.9169V18.6L7.06609 18.8431C7.36438 19.0522 8.18703 19.0864 12.9012 19.0864C18.0194 19.0864 18.4066 19.0672 18.6477 18.8006C18.8783 18.546 18.9062 17.9038 18.9062 12.8744C18.9062 7.95486 18.8748 7.20236 18.6608 6.98814C18.4466 6.77408 17.6975 6.74267 12.8125 6.74267C7.9275 6.74267 7.17844 6.77408 6.96422 6.98814ZM61.3392 6.98814C61.1252 7.20236 61.0938 7.95736 61.0938 12.9014C61.0938 18.1939 61.1127 18.5864 61.3795 18.8278C61.6339 19.0581 62.2639 19.0864 67.1259 19.0864C71.8155 19.0864 72.6358 19.052 72.9339 18.8431L73.2812 18.6V12.9169C73.2812 7.95877 73.25 7.20236 73.0358 6.98814C72.8216 6.77408 72.0725 6.74267 67.1875 6.74267C62.3025 6.74267 61.5534 6.77408 61.3392 6.98814ZM17.1875 12.9145V17.3677H12.8125H8.4375V12.9145V8.46142H12.8125H17.1875V12.9145ZM71.5625 12.9145V17.3677H67.1875H62.8125V12.9145V8.46142H67.1875H71.5625V12.9145ZM31.0737 20.2817C30.847 20.5544 30.668 24.2388 30.8469 24.9516C31.0698 25.8397 30.7117 25.8052 39.6986 25.8052C47.7605 25.8052 47.9766 25.7974 48.2812 25.4927C48.6705 25.1035 48.6803 24.6819 48.308 24.345C48.0503 24.1117 47.2691 24.0864 40.3392 24.0864H32.6562V22.4025C32.6562 21.1311 32.5966 20.6333 32.413 20.3713C32.1211 19.9545 31.3869 19.9055 31.0737 20.2817ZM2.37859 31.2047C2.04172 31.4406 2.03125 31.5319 2.03125 34.2403C2.03125 37.2533 2.10109 37.5239 2.8775 37.5239C3.62359 37.5239 3.75 37.1316 3.75 34.8163V32.6802H7.80141C12.1927 32.6802 12.3438 32.6516 12.3438 31.8185C12.3438 31.0133 12.0314 30.9614 7.1875 30.9614C3.40219 30.9614 2.67313 30.9983 2.37859 31.2047ZM31.3125 31.081C30.8172 31.4117 30.7812 31.9152 30.7812 38.5205V45.1627L31.1452 45.5858C31.438 45.9261 31.5916 45.988 31.9319 45.9025C32.1831 45.8395 32.4159 45.6355 32.5055 45.4C32.5931 45.1697 32.6562 42.421 32.6562 38.8419V32.6802H36.25H39.8438V37.4891C39.8438 41.5888 39.8797 42.3494 40.087 42.6453C40.3277 42.9891 40.3723 42.9927 44.375 42.9927C48.3777 42.9927 48.4223 42.9891 48.663 42.6453C48.9845 42.1864 48.9698 41.9625 48.5938 41.5864C48.3006 41.2933 48.073 41.2739 44.9194 41.2739H41.5575L41.5991 37.0161L41.6406 32.7583L45.1439 32.7161C47.2147 32.6913 48.7252 32.6094 48.838 32.5158C49.18 32.2319 49.197 31.7574 48.8798 31.3539L48.5711 30.9614L40.0277 30.9638C35.3289 30.9652 31.407 31.0178 31.3125 31.081ZM53.8523 31.2472C53.5408 31.5914 53.5142 32.2635 53.8027 32.5028C53.9455 32.6213 55.8397 32.6892 59.7792 32.7174L65.5469 32.7583L65.5895 35.5317L65.6322 38.3052H62.2991C59.8766 38.3052 58.8944 38.3585 58.7039 38.5005C58.4789 38.6681 58.4359 39.0838 58.4006 41.4302L58.3594 44.1645L55.8705 44.2077C54.3594 44.2339 53.3005 44.3181 53.1752 44.4222C52.8431 44.6977 52.9242 45.4438 53.3161 45.7181C53.6003 45.9174 54.1947 45.9614 56.5973 45.9614C60.4317 45.9614 60.1562 46.2155 60.1562 42.6802V40.0239H62.8906H65.625V42.7494C65.625 45.3888 65.6359 45.4827 65.9723 45.7181C66.2709 45.9274 67.1072 45.9614 71.9531 45.9614C76.7991 45.9614 77.6353 45.9274 77.9339 45.7181L78.2812 45.475V40.0263C78.2812 34.1131 78.2773 34.0864 77.4219 34.0864C76.5759 34.0864 76.5625 34.1692 76.5625 39.41V44.2427H71.9531H67.3438V37.9145C67.3438 31.7947 67.3334 31.5761 67.0312 31.2739C66.7291 30.9717 66.5105 30.9614 60.4148 30.9614C54.5061 30.9614 54.0947 30.9794 53.8523 31.2472ZM13.2273 34.0597C12.9981 34.3128 12.9688 34.9086 12.9688 39.2941V44.2427H8.35938H3.75V42.7825C3.75 41.1808 3.56813 40.8052 2.79234 40.8052C2.10047 40.8052 2.03125 41.0345 2.03125 43.3275C2.03125 45.3695 2.04828 45.4869 2.37859 45.7181C2.67719 45.9274 3.51344 45.9614 8.35938 45.9614C13.2053 45.9614 14.0416 45.9274 14.3402 45.7181C14.6867 45.4755 14.6875 45.4644 14.6875 40.4838V35.4927H20.5156C24.8403 35.4927 26.3922 35.4442 26.5312 35.3052C26.7967 35.0397 26.7638 34.31 26.4733 34.0194C26.258 33.8042 25.4402 33.7739 19.8569 33.7739C13.8833 33.7739 13.4698 33.7917 13.2273 34.0597ZM0.347344 51.361L0 51.6041V63.993C0 75.7966 0.0134375 76.3939 0.285781 76.6403C0.546562 76.8763 1.64328 76.8989 12.8397 76.8989C24.5264 76.8989 25.12 76.8853 25.3664 76.6131C25.6025 76.3524 25.625 75.2492 25.625 63.9658V51.6041L25.2777 51.361C24.9706 51.1458 23.5273 51.1177 12.8125 51.1177C2.09766 51.1177 0.654375 51.1458 0.347344 51.361ZM33.4375 51.4302C33.0614 51.8063 33.0467 52.0302 33.3683 52.4891C33.607 52.83 33.6742 52.8364 37.0402 52.8364H40.4688V56.5864V60.3364H36.0086H31.5483L31.1748 60.7099C30.7358 61.1489 30.7959 61.6427 31.3311 61.9935C31.6269 62.1872 32.4872 62.2167 36.7137 62.1786C41.4848 62.1356 41.7556 62.1177 41.9659 61.83C42.1447 61.5853 42.1875 60.6861 42.1875 57.1816V52.8364H44.7656H47.3438V57.1403V61.4444L47.7273 61.8278C48.1891 62.2896 48.2955 62.2983 48.7717 61.913L49.1406 61.6144L49.1867 56.952C49.212 54.3877 49.1944 52.1363 49.1473 51.9489C48.9327 51.0917 49.1823 51.1177 41.1608 51.1177C33.9583 51.1177 33.7412 51.1264 33.4375 51.4302ZM54.7223 51.361L54.375 51.6041V63.993C54.375 75.7966 54.3884 76.3939 54.6608 76.6403C54.9216 76.8763 56.0183 76.8989 67.2147 76.8989C78.9014 76.8989 79.495 76.8853 79.7414 76.6131C79.9775 76.3524 80 75.2492 80 63.9658V51.6041L79.6527 51.361C79.3456 51.1458 77.9023 51.1177 67.1875 51.1177C56.4727 51.1177 55.0294 51.1458 54.7223 51.361ZM23.9062 64.0083V75.1802H12.8125H1.71875V64.0083V52.8364H12.8125H23.9062V64.0083ZM78.2812 64.0083V75.1802H67.1875H56.0938V64.0083V52.8364H67.1875H78.2812V64.0083ZM7.06609 58.0797L6.71875 58.3228V64.006C6.71875 68.9641 6.75 69.7205 6.96422 69.9347C7.17844 70.1488 7.9275 70.1802 12.8125 70.1802C17.6975 70.1802 18.4466 70.1488 18.6608 69.9347C18.8748 69.7205 18.9062 68.9655 18.9062 64.0214C18.9062 58.7289 18.8873 58.3364 18.6205 58.095C18.3661 57.8647 17.7361 57.8364 12.8741 57.8364C8.18453 57.8364 7.36422 57.8708 7.06609 58.0797ZM61.3523 58.1222C61.1217 58.3769 61.0938 59.0191 61.0938 64.0485C61.0938 68.968 61.1252 69.7205 61.3392 69.9347C61.5534 70.1488 62.3025 70.1802 67.1875 70.1802C72.0725 70.1802 72.8216 70.1488 73.0358 69.9347C73.25 69.7205 73.2812 68.9641 73.2812 64.006V58.3228L72.9339 58.0797C72.6356 57.8706 71.813 57.8364 67.0988 57.8364C61.9806 57.8364 61.5934 57.8556 61.3523 58.1222ZM17.1875 64.0083V68.4614H12.8125H8.4375V64.0083V59.5552H12.8125H17.1875V64.0083ZM71.5625 64.0083V68.4614H67.1875H62.8125V64.0083V59.5552H67.1875H71.5625V64.0083ZM31.1581 66.6641L30.7681 67.0541L30.8137 71.7549C30.8569 76.1992 30.8759 76.4678 31.1627 76.6774C31.4155 76.862 32.8528 76.8989 39.8058 76.8989C45.2558 76.8989 48.2503 76.8428 48.4478 76.7372C48.6564 76.6255 48.75 76.4094 48.75 76.0396C48.75 75.6697 48.6564 75.4536 48.4478 75.3419C48.2778 75.251 47.1155 75.1802 45.7916 75.1802H43.4375V72.0552C43.4375 69.1385 43.4167 68.9094 43.125 68.6177C42.7489 68.2416 42.525 68.2269 42.0661 68.5485C41.7264 68.7863 41.7188 68.8622 41.7188 71.986V75.1802H37.1875H32.6562V71.1106V67.041L32.2727 66.6575C31.7923 66.177 31.6442 66.178 31.1581 66.6641Z" fill="#6546BD"/>
</svg>
