<svg width="58" height="56" viewBox="0 0 58 56" fill="none" xmlns="http://www.w3.org/2000/svg">
<path fill-rule="evenodd" clip-rule="evenodd" d="M25.1628 0.382714C19.9475 0.923141 15.2536 2.73376 11.2065 5.76591C5.32493 10.1725 1.56829 16.4987 0.424544 23.9229C0.147548 25.7211 0.147548 29.7473 0.424544 31.5456C0.973827 35.1111 2.08046 38.3403 3.75443 41.2619C10.1613 52.4448 23.3043 57.7047 35.588 54.0018C43.0584 51.7499 48.9798 46.6316 52.4096 39.4615C53.2405 37.7247 53.3856 37.2072 53.2082 36.6149C52.9471 35.7435 52.2886 35.2448 51.3993 35.2448C50.4356 35.2448 50.035 35.6439 49.2661 37.3699C46.5418 43.4847 41.4608 48.0994 35.1396 50.1999C32.5277 51.0677 30.5081 51.387 27.629 51.387C24.7701 51.387 22.7855 51.0753 20.1738 50.2158C11.668 47.4168 5.5025 40.0377 4.14184 31.0282C3.89523 29.3949 3.89433 26.0873 4.14028 24.4273C5.72109 13.7525 14.1391 5.51952 24.8236 4.19877C26.1995 4.02872 29.3216 4.05484 30.79 4.24866C34.9232 4.79424 38.8611 6.444 42.212 9.0337C45.1253 11.2852 47.711 14.6079 49.2661 18.0985C50.035 19.8245 50.4356 20.2236 51.3993 20.2236C52.6627 20.2236 53.5269 19.1062 53.2022 17.8924C53.0191 17.2075 51.9155 14.9112 51.1192 13.5583C50.1177 11.8567 48.5554 9.86962 46.9687 8.27916C42.7527 4.05372 37.4557 1.42411 31.3843 0.542454C29.9982 0.341237 26.4437 0.249877 25.1628 0.382714ZM28.862 15.9776C28.5614 16.0661 27.2448 17.3154 23.2305 21.3209C20.3491 24.1963 17.9151 26.7096 17.8218 26.9062C17.6044 27.3643 17.6049 28.105 17.8228 28.5643C17.9166 28.762 20.3505 31.2746 23.2316 34.1478C27.8502 38.7541 28.5262 39.387 28.9478 39.4991C30.5298 39.9198 31.871 38.3309 31.1478 36.8927C31.0486 36.6954 29.4229 34.9828 27.535 33.0869L24.1027 29.6399H39.9493C51.7185 29.6399 55.9083 29.6061 56.2333 29.5088C56.7793 29.3452 57.4094 28.666 57.5094 28.1333C57.6837 27.2036 57.1071 26.2214 56.2333 25.9596C55.9083 25.8623 51.7185 25.8285 39.9493 25.8285H24.1027L27.535 22.3815C29.4229 20.4857 31.0541 18.7623 31.1602 18.5518C31.4193 18.0372 31.3446 17.1317 31.0034 16.6525C30.5591 16.0285 29.6562 15.744 28.862 15.9776Z" fill="white"/>
</svg>
