<svg width="27" height="25" viewBox="0 0 27 25" fill="none" xmlns="http://www.w3.org/2000/svg">
<path fill-rule="evenodd" clip-rule="evenodd" d="M11.3686 0.028438C8.99187 0.274726 6.85272 1.09988 5.00834 2.48172C2.32793 4.48993 0.615913 7.37295 0.0946762 10.7564C-0.0315587 11.5759 -0.0315587 13.4107 0.0946762 14.2303C0.345001 15.8552 0.849327 17.3268 1.6122 18.6583C4.53201 23.7546 10.5217 26.1517 16.1197 24.4642C19.5242 23.4379 22.2227 21.1054 23.7858 17.8378C24.1644 17.0462 24.2306 16.8104 24.1497 16.5405C24.0307 16.1434 23.7307 15.9161 23.3254 15.9161C22.8862 15.9161 22.7036 16.098 22.3532 16.8846C21.1116 19.6713 18.7961 21.7743 15.9153 22.7316C14.725 23.1271 13.8046 23.2726 12.4925 23.2726C11.1897 23.2726 10.2852 23.1305 9.09501 22.7388C5.21866 21.4632 2.40885 18.1004 1.78876 13.9945C1.67637 13.2502 1.67596 11.7427 1.78804 10.9863C2.50847 6.12143 6.34481 2.36943 11.214 1.76753C11.8411 1.69003 13.2639 1.70193 13.9331 1.79026C15.8167 2.0389 17.6113 2.79074 19.1384 3.97094C20.4661 4.99702 21.6445 6.51127 22.3532 8.10206C22.7036 8.88864 22.8862 9.07051 23.3254 9.07051C23.9011 9.07051 24.295 8.56128 24.147 8.00811C24.0635 7.69597 23.5606 6.64952 23.1977 6.03295C22.7413 5.25746 22.0293 4.3519 21.3062 3.62708C19.3849 1.70142 16.9709 0.503032 14.2039 0.101236C13.5722 0.009536 11.9524 -0.0320996 11.3686 0.028438ZM13.0545 7.1355C12.9175 7.17581 12.3174 7.74517 10.488 9.57059C9.17486 10.881 8.06561 12.0264 8.02311 12.116C7.92405 12.3247 7.92426 12.6623 8.02357 12.8716C8.06633 12.9617 9.17552 14.1068 10.4885 15.4162C12.5934 17.5154 12.9014 17.8038 13.0936 17.8549C13.8145 18.0466 14.4257 17.3225 14.0962 16.6671C14.051 16.5772 13.3101 15.7967 12.4497 14.9327L10.8855 13.3618H18.1072C23.4708 13.3618 25.3802 13.3464 25.5283 13.3021C25.7772 13.2275 26.0643 12.9179 26.1099 12.6752C26.1893 12.2515 25.9266 11.8039 25.5283 11.6846C25.3802 11.6402 23.4708 11.6248 18.1072 11.6248H10.8855L12.4497 10.0539C13.3101 9.18995 14.0535 8.40454 14.1018 8.3086C14.2199 8.07412 14.1858 7.66144 14.0303 7.44304C13.8279 7.1587 13.4164 7.02904 13.0545 7.1355Z" fill="#6546BD"/>
</svg>
