<svg width="63" height="80" viewBox="0 0 63 80" fill="none" xmlns="http://www.w3.org/2000/svg">
<path fill-rule="evenodd" clip-rule="evenodd" d="M51.4488 0.0638837C48.7495 0.479678 45.6211 2.19293 43.5442 4.3929C43.0165 4.95198 42.5846 5.53756 42.5846 5.69438C42.5846 6.04328 43.2251 6.71056 43.5599 6.71056C43.694 6.71056 44.3959 6.15056 45.1194 5.4661C47.9406 2.79716 51.2185 1.51304 54.0538 1.96594C56.3408 2.33129 58.2064 3.35076 60.4168 5.44307C61.1534 6.14015 61.8481 6.71056 61.9605 6.71056C62.4927 6.71056 62.8717 6.30957 62.8717 5.74647C62.8717 4.54569 59.0989 1.5845 56.3715 0.64435C54.8731 0.127852 52.6984 -0.12857 51.4488 0.0638837ZM8.7728 2.14139C8.42993 2.48426 8.40727 2.75055 8.40727 6.43641V10.3659H4.60992C1.46871 10.3659 0.742215 10.4151 0.40629 10.6505L0 10.9348L0.00383878 26.6882L0.00785883 42.4414L0.903964 60.8713C1.70302 77.3042 1.83443 79.3389 2.11644 79.6506C2.42349 79.99 2.92902 80 19.6474 80C36.251 80 36.8732 79.9878 37.1726 79.6571C37.4467 79.3541 37.5878 77.1494 38.3863 60.6951L39.2899 42.0759L39.2925 26.5055L39.2948 10.9348L38.8885 10.6505C38.5528 10.4151 37.827 10.3659 34.695 10.3659H30.9073L30.8517 6.33004C30.8002 2.58131 30.771 2.27573 30.4414 2.03502C30.145 1.81844 28.3643 1.77586 19.6125 1.77586C9.38196 1.77586 9.12974 1.78445 8.7728 2.14139ZM28.8771 10.0004V16.2144H19.6474H10.4177V10.0004V3.78629H19.6474H28.8771V10.0004ZM50.5701 5.23454C48.9559 5.88135 47.1538 7.43084 47.1538 8.17196C47.1538 9.29452 48.0404 9.37256 49.171 8.34925C51.5634 6.18438 54.0145 6.15129 56.2622 8.25366C57.4704 9.38389 58.4853 9.35629 58.4853 8.1928C58.4853 7.59862 56.9943 6.20996 55.5954 5.50101C54.2276 4.80796 51.9377 4.6866 50.5701 5.23454ZM51.8144 9.33491C50.8497 9.78049 50.3901 10.4448 50.3115 11.5067C50.2268 12.653 50.6479 13.4684 51.5713 13.9459C53.8136 15.1054 56.196 12.7932 55.0581 10.5616C54.4407 9.35063 52.978 8.79757 51.8144 9.33491ZM53.2862 11.2905C53.6669 11.7112 53.489 12.2354 52.9283 12.3458C52.2095 12.4871 51.7835 11.4757 52.4083 11.1116C52.8508 10.8539 52.9004 10.8639 53.2862 11.2905ZM8.40727 14.2954V16.2144H7.46218C6.05926 16.2144 5.43895 16.921 6.15101 17.7078C6.43869 18.0258 7.09793 18.0421 19.6628 18.0421C31.4273 18.0421 32.9033 18.0107 33.1592 17.755C33.9032 17.0109 33.2337 16.2144 31.8645 16.2144H30.8876V14.2954V12.3763H34.1774H37.4672L37.4684 26.5864C37.4695 40.7476 37.4668 40.8565 36.6462 58.1594C36.1935 67.7089 35.7746 76.1184 35.7157 76.8473L35.6083 78.1723H19.6463H3.68439L3.57985 77.03C3.52228 76.4019 3.10319 68.0333 2.64865 58.4335C1.82346 41.0009 1.82237 40.9616 1.82493 26.6778L1.82767 12.3763H5.11747H8.40727V14.2954ZM4.20363 21.1491C3.84706 21.5057 3.8381 21.7583 3.8381 31.3961C3.8381 37.858 3.90353 41.3999 4.02726 41.6311C4.21204 41.9763 4.57538 41.9845 19.5167 41.9818C28.8356 41.98 34.9242 41.9112 35.0912 41.8058C35.3284 41.6557 35.3721 40.2793 35.4156 31.5782C35.465 21.6923 35.4595 21.5174 35.0958 21.1537C34.7301 20.788 34.5433 20.7836 19.6474 20.7836C4.8128 20.7836 4.56332 20.7894 4.20363 21.1491ZM33.4463 31.4754V40.1569H19.6474H5.84853V31.4754V22.794H19.6474H33.4463V31.4754ZM7.34722 49.149C7.19571 49.3005 7.1279 50.2321 7.1279 52.1582C7.1279 54.7294 7.15568 54.963 7.48137 55.1373C7.67657 55.2417 8.97439 55.3265 10.3773 55.3265C13.6773 55.3265 13.5247 55.4808 13.5247 52.1474C13.5247 50.7663 13.4396 49.4776 13.3356 49.2831C13.1612 48.9574 12.9276 48.9297 10.3565 48.9297C8.43029 48.9297 7.49873 48.9975 7.34722 49.149ZM16.6683 49.149C16.5175 49.2998 16.449 50.2101 16.449 52.0603C16.449 54.2637 16.5011 54.8041 16.7361 55.0394C16.9706 55.2737 17.5056 55.3265 19.6474 55.3265C21.7893 55.3265 22.3242 55.2737 22.5587 55.0394C22.7937 54.8041 22.8458 54.2637 22.8458 52.0603C22.8458 50.2101 22.7773 49.2998 22.6265 49.149C22.3198 48.8423 16.975 48.8423 16.6683 49.149ZM25.9894 49.149C25.8388 49.2996 25.7701 50.2068 25.7701 52.0449C25.7701 55.4996 25.6023 55.3265 28.9491 55.3265C30.3303 55.3265 31.619 55.2413 31.8135 55.1373C32.1392 54.963 32.1669 54.7294 32.1669 52.1582C32.1669 50.2321 32.0991 49.3005 31.9476 49.149C31.6409 48.8423 26.2961 48.8423 25.9894 49.149ZM11.6594 52.0824L11.6057 53.4074L10.2806 53.4612L8.95557 53.5149V52.1361V50.7573H10.3344H11.7132L11.6594 52.0824ZM21.0182 52.1281V53.4988H19.6474H18.2767V52.1281V50.7573H19.6474H21.0182V52.1281ZM30.3393 52.1281V53.4988H28.9685H27.5978V52.1281V50.7573H28.9685H30.3393V52.1281ZM7.34722 58.4701C7.04054 58.7768 7.04054 64.1216 7.34722 64.4283C7.498 64.5791 8.40836 64.6476 10.2585 64.6476C12.4619 64.6476 13.0024 64.5955 13.2376 64.3605C13.4719 64.126 13.5247 63.591 13.5247 61.4492C13.5247 59.3073 13.4719 58.7724 13.2376 58.5379C13.0024 58.3029 12.4619 58.2508 10.2585 58.2508C8.40836 58.2508 7.498 58.3193 7.34722 58.4701ZM16.6683 58.4701C16.5172 58.6212 16.449 59.5464 16.449 61.4492C16.449 63.352 16.5172 64.2771 16.6683 64.4283C16.8191 64.5791 17.7295 64.6476 19.5796 64.6476C21.783 64.6476 22.3235 64.5955 22.5587 64.3605C22.7937 64.1253 22.8458 63.5848 22.8458 61.3814C22.8458 59.5312 22.7773 58.6209 22.6265 58.4701C22.3198 58.1634 16.975 58.1634 16.6683 58.4701ZM25.9593 58.6042C25.8547 58.7996 25.7701 60.102 25.7701 61.5155C25.7701 63.5971 25.8237 64.1267 26.0572 64.3605C26.2924 64.5955 26.8329 64.6476 29.0363 64.6476C30.8865 64.6476 31.7968 64.5791 31.9476 64.4283C32.2543 64.1216 32.2543 58.7768 31.9476 58.4701C31.7961 58.3186 30.8645 58.2508 28.9384 58.2508C26.3672 58.2508 26.1336 58.2785 25.9593 58.6042ZM11.6971 61.4492V62.8199H10.3263H8.95557V61.4492V60.0784H10.3263H11.6971V61.4492ZM21.0182 61.4492V62.8199H19.6474H18.2767V61.4492V60.0784H19.6474H21.0182V61.4492ZM30.3393 61.4492V62.8199H28.9685H27.5978V61.4492V60.0784H28.9685H30.3393V61.4492ZM7.34722 67.7912C7.04054 68.0979 7.04054 73.4427 7.34722 73.7494C7.49873 73.9009 8.43029 73.9687 10.3565 73.9687C12.9276 73.9687 13.1612 73.9409 13.3356 73.6152C13.4399 73.42 13.5247 72.1222 13.5247 70.7193C13.5247 67.4063 13.6991 67.5719 10.2114 67.5719C8.39795 67.5719 7.49764 67.6408 7.34722 67.7912ZM16.7361 67.859C16.5011 68.0942 16.449 68.6347 16.449 70.8381C16.449 72.6882 16.5175 73.5986 16.6683 73.7494C16.975 74.0561 22.3198 74.0561 22.6265 73.7494C22.7773 73.5986 22.8458 72.6882 22.8458 70.8381C22.8458 68.6347 22.7937 68.0942 22.5587 67.859C22.1358 67.4363 17.159 67.4363 16.7361 67.859ZM26.0572 67.859C25.8237 68.0928 25.7701 68.6224 25.7701 70.7039C25.7701 72.1175 25.8547 73.4199 25.9593 73.6152C26.1336 73.9409 26.3672 73.9687 28.9384 73.9687C30.8645 73.9687 31.7961 73.9009 31.9476 73.7494C32.0991 73.5979 32.1669 72.6663 32.1669 70.7401C32.1669 68.169 32.1392 67.9354 31.8135 67.761C31.6181 67.6565 30.3157 67.5719 28.9022 67.5719C26.8206 67.5719 26.291 67.6254 26.0572 67.859ZM11.6971 70.7703V72.141H10.3263H8.95557V70.7703V69.3995H10.3263H11.6971V70.7703ZM21.0182 70.7703V72.141H19.6474H18.2767V70.7703V69.3995H19.6474H21.0182V70.7703ZM30.3393 70.7703V72.141H28.9685H27.5978V70.7703V69.3995H28.9685H30.3393V70.7703Z" fill="#6546BD"/>
</svg>
