<svg width="25" height="25" viewBox="0 0 25 25" fill="none" xmlns="http://www.w3.org/2000/svg">
<path fill-rule="evenodd" clip-rule="evenodd" d="M11.456 0.0567362C8.20984 0.328928 5.0444 1.95247 2.99196 4.39786C-0.231429 8.23834 -0.906527 13.4532 1.24082 17.9249C3.87866 23.4179 10.1521 26.2083 16.0253 24.5008C19.6919 23.4349 22.7631 20.6244 24.136 17.0787C25.5303 13.4779 25.2205 9.48598 23.2912 6.19517C22.893 5.51594 22.5947 5.34746 22.1496 5.55033C21.9436 5.64415 21.7792 5.92589 21.7792 6.18495C21.7792 6.28426 21.8867 6.54271 22.0183 6.75912C22.6315 7.76869 23.1416 9.07976 23.4129 10.3433C23.5422 10.9458 23.5658 11.2655 23.5686 12.4418C23.5712 13.616 23.5486 13.9441 23.4212 14.5743C22.9461 16.9259 21.9001 18.8356 20.1737 20.5035C18.6316 21.9933 16.8407 22.9332 14.6783 23.3873C13.9385 23.5428 13.6592 23.567 12.573 23.5698C11.192 23.5735 10.4814 23.4777 9.31242 23.1306C4.15038 21.5975 0.791542 16.4166 1.50164 11.0828C2.06856 6.82451 4.96798 3.30483 9.01911 1.95714C10.2679 1.54171 10.902 1.44897 12.5053 1.44741C13.7693 1.4462 14.0542 1.46623 14.6714 1.59999C15.6375 1.8093 16.6358 2.15047 17.3554 2.51723L17.9545 2.82259L17.5822 2.82611C16.8434 2.83308 16.4346 3.26205 16.6578 3.79608C16.8468 4.24854 16.9723 4.27108 18.6158 4.14842C19.4063 4.08946 20.1221 4.02407 20.2064 4.00308C20.4346 3.94642 20.6284 3.65961 20.6284 3.37848C20.6284 3.24371 20.4621 2.5244 20.2589 1.77992C19.8751 0.374418 19.8077 0.24086 19.4352 0.147376C19.0831 0.0589698 18.7117 0.285605 18.6218 0.643564C18.5948 0.751398 18.62 1.00274 18.6814 1.23763C18.74 1.46156 18.7811 1.65191 18.7728 1.66065C18.7645 1.66938 18.4301 1.51233 18.0297 1.31162C16.6802 0.63517 15.0911 0.196657 13.4868 0.0579545C12.5961 -0.019012 12.3612 -0.0192149 11.456 0.0567362ZM12.191 2.41921C11.9125 2.53828 11.8284 2.75395 11.8284 3.34897C11.8284 3.98399 11.8956 4.18152 12.1661 4.34134C12.3999 4.47943 12.5894 4.48404 12.8339 4.35759C13.1016 4.21922 13.1822 3.98304 13.1822 3.33773C13.1822 2.84574 13.1617 2.74549 13.0298 2.5921C12.8622 2.39714 12.4442 2.31104 12.191 2.41921ZM12.1983 5.80113C11.859 5.94721 11.8644 5.89854 11.8284 9.11008L11.7945 12.1209L10.3401 12.9537C9.54014 13.4117 8.83194 13.8528 8.76621 13.9339C8.57288 14.1727 8.60909 14.5807 8.84466 14.8162C9.19965 15.1711 9.32785 15.1292 11.2538 14.0275C12.2024 13.4849 13.0244 12.9755 13.0804 12.8955C13.1677 12.7709 13.1822 12.2782 13.1822 9.452V6.15395L13.0298 5.97673C12.8639 5.78387 12.4443 5.69526 12.1983 5.80113ZM2.57518 11.9959C2.41258 12.1357 2.38523 12.2097 2.38523 12.5095C2.38523 12.8092 2.41258 12.8832 2.57518 13.0231C2.74332 13.1676 2.83024 13.1864 3.33354 13.1864C3.97885 13.1864 4.21503 13.1058 4.35339 12.8381C4.53461 12.4877 4.40897 12.0636 4.07944 11.9134C3.98183 11.869 3.64614 11.8325 3.33354 11.8325C2.83024 11.8325 2.74332 11.8513 2.57518 11.9959ZM20.9066 11.927C20.5863 12.1045 20.4795 12.4946 20.6572 12.8381C20.7959 13.1063 21.0319 13.1864 21.6839 13.1864C22.2018 13.1864 22.2755 13.1701 22.4226 13.023C22.615 12.8305 22.6911 12.578 22.6299 12.3344C22.6058 12.2382 22.5124 12.0859 22.4226 11.996C22.2741 11.8475 22.2046 11.8328 21.6638 11.8349C21.3004 11.8364 21.0053 11.8723 20.9066 11.927ZM12.1743 20.6594C11.9078 20.8071 11.8334 21.0255 11.8307 21.668C11.8286 22.2088 11.8433 22.2783 11.9918 22.4268C12.0817 22.5166 12.234 22.61 12.3302 22.6341C12.5739 22.6953 12.8263 22.6192 13.0188 22.4268C13.1659 22.2797 13.1822 22.206 13.1822 21.6881C13.1822 21.3717 13.1458 21.0329 13.1013 20.9353C12.9531 20.61 12.5043 20.4764 12.1743 20.6594Z" fill="#6546BD"/>
</svg>
